# xmcd
#
# Track frame offsets: 
#        150
#        16769
#        29559
#        43553
#        67321
#        93564
#        106035
#        128313
#        146014
#        161759
#        171698
#        185284
#
# Disc length: 2916 seconds
#
# Revision: 0
# Processed by: cddbd v1.5.2PL0 Copyright (c) Steve Scherf et al.
# Submitted via: ExactAudioCopy v0.95b3
#
DISCID=a20b620c
DTITLE=Mc5  - Recorded at Saginaw Civic Cente - The Live Bootleg Antho
DTITLE=logy CD2
DYEAR=1900
DGENRE=
TTITLE0=Intros \\ Ramblin' Rose
TTITLE1=Human Being Lawnmower
TTITLE2=Tonight
TTITLE3=Rama Lama Fa Fa Fa
TTITLE4=It's a Man's, Man's, Man's World
TTITLE5=Teen Age Lust
TTITLE6=Looking at You
TTITLE7=Fire of Love
TTITLE8=Shakin' Street
TTITLE9=Starship
TTITLE10=Kick Out the Jams
TTITLE11=Black to Comm
EXTD=
EXTT0=
EXTT1=
EXTT2=
EXTT3=
EXTT4=
EXTT5=
EXTT6=
EXTT7=
EXTT8=
EXTT9=
EXTT10=
EXTT11=
PLAYORDER=
